<svg id="visual" viewBox="0 0 900 600" width="900" height="600" xmlns="http://www.w3.org/2000/svg" xmlns:xlink="http://www.w3.org/1999/xlink" version="1.1"><g stroke-width="1" stroke-linejoin="bevel"><path d="M430 327L498 401L518 337Z" fill="#f2f26c" stroke="#f2f26c"></path><path d="M430 327L365 409L498 401Z" fill="#289f73" stroke="#289f73"></path><path d="M498 401L593 389L518 337Z" fill="#abd96c" stroke="#abd96c"></path><path d="M593 389L565 264L518 337Z" fill="#d9ea6b" stroke="#d9ea6b"></path><path d="M518 337L419 228L430 327Z" fill="#d9ea6b" stroke="#d9ea6b"></path><path d="M565 264L419 228L518 337Z" fill="#6abd71" stroke="#6abd71"></path><path d="M430 327L292 269L365 409Z" fill="#c2e26b" stroke="#c2e26b"></path><path d="M392 537L538 488L498 401Z" fill="#7fc76f" stroke="#7fc76f"></path><path d="M498 401L538 488L593 389Z" fill="#3fa973" stroke="#3fa973"></path><path d="M565 264L468 188L419 228Z" fill="#f2f26c" stroke="#f2f26c"></path><path d="M292 269L305 433L365 409Z" fill="#7fc76f" stroke="#7fc76f"></path><path d="M365 409L392 537L498 401Z" fill="#abd96c" stroke="#abd96c"></path><path d="M727 169L569 190L565 264Z" fill="#289f73" stroke="#289f73"></path><path d="M565 264L569 190L468 188Z" fill="#95d06d" stroke="#95d06d"></path><path d="M339 524L392 537L365 409Z" fill="#009473" stroke="#009473"></path><path d="M337 200L292 269L419 228Z" fill="#6abd71" stroke="#6abd71"></path><path d="M419 228L292 269L430 327Z" fill="#6abd71" stroke="#6abd71"></path><path d="M599 600L636 473L538 488Z" fill="#95d06d" stroke="#95d06d"></path><path d="M538 488L636 473L593 389Z" fill="#f2f26c" stroke="#f2f26c"></path><path d="M593 389L730 295L565 264Z" fill="#289f73" stroke="#289f73"></path><path d="M468 188L337 200L419 228Z" fill="#95d06d" stroke="#95d06d"></path><path d="M305 433L339 524L365 409Z" fill="#7fc76f" stroke="#7fc76f"></path><path d="M636 473L689 432L593 389Z" fill="#3fa973" stroke="#3fa973"></path><path d="M366 600L465 600L392 537Z" fill="#3fa973" stroke="#3fa973"></path><path d="M392 537L465 600L538 488Z" fill="#55b372" stroke="#55b372"></path><path d="M234 208L225 314L292 269Z" fill="#f2f26c" stroke="#f2f26c"></path><path d="M292 269L225 314L305 433Z" fill="#95d06d" stroke="#95d06d"></path><path d="M207 600L295 600L339 524Z" fill="#289f73" stroke="#289f73"></path><path d="M295 600L366 600L339 524Z" fill="#c2e26b" stroke="#c2e26b"></path><path d="M339 524L366 600L392 537Z" fill="#c2e26b" stroke="#c2e26b"></path><path d="M689 432L730 295L593 389Z" fill="#009473" stroke="#009473"></path><path d="M636 473L725 502L689 432Z" fill="#d9ea6b" stroke="#d9ea6b"></path><path d="M465 600L599 600L538 488Z" fill="#3fa973" stroke="#3fa973"></path><path d="M337 200L234 208L292 269Z" fill="#95d06d" stroke="#95d06d"></path><path d="M325 81L234 208L337 200Z" fill="#c2e26b" stroke="#c2e26b"></path><path d="M569 190L514 74L468 188Z" fill="#c2e26b" stroke="#c2e26b"></path><path d="M372 60L325 81L337 200Z" fill="#c2e26b" stroke="#c2e26b"></path><path d="M562 80L514 74L569 190Z" fill="#abd96c" stroke="#abd96c"></path><path d="M680 128L562 80L569 190Z" fill="#009473" stroke="#009473"></path><path d="M670 600L725 502L636 473Z" fill="#55b372" stroke="#55b372"></path><path d="M689 432L791 397L730 295Z" fill="#7fc76f" stroke="#7fc76f"></path><path d="M174 465L339 524L305 433Z" fill="#289f73" stroke="#289f73"></path><path d="M122 311L167 361L225 314Z" fill="#009473" stroke="#009473"></path><path d="M225 314L167 361L305 433Z" fill="#95d06d" stroke="#95d06d"></path><path d="M727 169L680 128L569 190Z" fill="#7fc76f" stroke="#7fc76f"></path><path d="M372 60L337 200L468 188Z" fill="#95d06d" stroke="#95d06d"></path><path d="M514 74L372 60L468 188Z" fill="#abd96c" stroke="#abd96c"></path><path d="M599 600L670 600L636 473Z" fill="#7fc76f" stroke="#7fc76f"></path><path d="M167 361L174 465L305 433Z" fill="#c2e26b" stroke="#c2e26b"></path><path d="M730 295L727 169L565 264Z" fill="#3fa973" stroke="#3fa973"></path><path d="M725 502L791 397L689 432Z" fill="#6abd71" stroke="#6abd71"></path><path d="M730 295L816 172L727 169Z" fill="#d9ea6b" stroke="#d9ea6b"></path><path d="M791 525L791 397L725 502Z" fill="#289f73" stroke="#289f73"></path><path d="M74 160L122 311L234 208Z" fill="#c2e26b" stroke="#c2e26b"></path><path d="M234 208L122 311L225 314Z" fill="#289f73" stroke="#289f73"></path><path d="M167 361L90 383L174 465Z" fill="#95d06d" stroke="#95d06d"></path><path d="M581 0L464 0L514 74Z" fill="#6abd71" stroke="#6abd71"></path><path d="M514 74L427 0L372 60Z" fill="#289f73" stroke="#289f73"></path><path d="M372 60L286 0L325 81Z" fill="#f2f26c" stroke="#f2f26c"></path><path d="M581 0L514 74L562 80Z" fill="#289f73" stroke="#289f73"></path><path d="M791 397L828 329L730 295Z" fill="#d9ea6b" stroke="#d9ea6b"></path><path d="M174 465L207 600L339 524Z" fill="#009473" stroke="#009473"></path><path d="M86 496L207 600L174 465Z" fill="#c2e26b" stroke="#c2e26b"></path><path d="M464 0L427 0L514 74Z" fill="#f2f26c" stroke="#f2f26c"></path><path d="M670 600L791 525L725 502Z" fill="#3fa973" stroke="#3fa973"></path><path d="M791 397L900 392L828 329Z" fill="#c2e26b" stroke="#c2e26b"></path><path d="M680 128L581 0L562 80Z" fill="#3fa973" stroke="#3fa973"></path><path d="M721 0L581 0L680 128Z" fill="#3fa973" stroke="#3fa973"></path><path d="M816 172L763 117L727 169Z" fill="#3fa973" stroke="#3fa973"></path><path d="M727 169L763 117L680 128Z" fill="#abd96c" stroke="#abd96c"></path><path d="M122 311L90 383L167 361Z" fill="#289f73" stroke="#289f73"></path><path d="M828 329L816 172L730 295Z" fill="#95d06d" stroke="#95d06d"></path><path d="M286 0L195 69L325 81Z" fill="#d9ea6b" stroke="#d9ea6b"></path><path d="M325 81L195 69L234 208Z" fill="#c2e26b" stroke="#c2e26b"></path><path d="M122 311L0 313L90 383Z" fill="#55b372" stroke="#55b372"></path><path d="M427 0L286 0L372 60Z" fill="#55b372" stroke="#55b372"></path><path d="M90 383L86 496L174 465Z" fill="#d9ea6b" stroke="#d9ea6b"></path><path d="M900 490L900 392L791 397Z" fill="#6abd71" stroke="#6abd71"></path><path d="M828 329L900 297L816 172Z" fill="#d9ea6b" stroke="#d9ea6b"></path><path d="M900 392L900 297L828 329Z" fill="#c2e26b" stroke="#c2e26b"></path><path d="M286 0L224 0L195 69Z" fill="#f2f26c" stroke="#f2f26c"></path><path d="M670 600L833 600L791 525Z" fill="#55b372" stroke="#55b372"></path><path d="M791 525L900 490L791 397Z" fill="#289f73" stroke="#289f73"></path><path d="M801 0L763 117L900 124Z" fill="#55b372" stroke="#55b372"></path><path d="M801 0L721 0L763 117Z" fill="#009473" stroke="#009473"></path><path d="M763 117L721 0L680 128Z" fill="#7fc76f" stroke="#7fc76f"></path><path d="M90 83L74 160L195 69Z" fill="#009473" stroke="#009473"></path><path d="M195 69L74 160L234 208Z" fill="#6abd71" stroke="#6abd71"></path><path d="M90 383L0 424L86 496Z" fill="#7fc76f" stroke="#7fc76f"></path><path d="M833 600L900 490L791 525Z" fill="#abd96c" stroke="#abd96c"></path><path d="M0 532L88 600L86 496Z" fill="#3fa973" stroke="#3fa973"></path><path d="M86 496L88 600L207 600Z" fill="#6abd71" stroke="#6abd71"></path><path d="M900 297L900 190L816 172Z" fill="#abd96c" stroke="#abd96c"></path><path d="M95 0L90 83L195 69Z" fill="#289f73" stroke="#289f73"></path><path d="M0 206L122 311L74 160Z" fill="#95d06d" stroke="#95d06d"></path><path d="M0 206L0 313L122 311Z" fill="#55b372" stroke="#55b372"></path><path d="M0 313L0 424L90 383Z" fill="#55b372" stroke="#55b372"></path><path d="M900 124L763 117L816 172Z" fill="#f2f26c" stroke="#f2f26c"></path><path d="M900 190L900 124L816 172Z" fill="#c2e26b" stroke="#c2e26b"></path><path d="M833 600L900 600L900 490Z" fill="#95d06d" stroke="#95d06d"></path><path d="M0 118L0 206L74 160Z" fill="#55b372" stroke="#55b372"></path><path d="M0 424L0 532L86 496Z" fill="#f2f26c" stroke="#f2f26c"></path><path d="M224 0L95 0L195 69Z" fill="#95d06d" stroke="#95d06d"></path><path d="M90 83L0 118L74 160Z" fill="#3fa973" stroke="#3fa973"></path><path d="M0 0L0 118L90 83Z" fill="#f2f26c" stroke="#f2f26c"></path><path d="M0 532L0 600L88 600Z" fill="#6abd71" stroke="#6abd71"></path><path d="M900 124L900 0L801 0Z" fill="#f2f26c" stroke="#f2f26c"></path><path d="M95 0L0 0L90 83Z" fill="#c2e26b" stroke="#c2e26b"></path></g></svg>