<svg id="visual" viewBox="0 0 1500 900" width="1500" height="900" xmlns="http://www.w3.org/2000/svg" xmlns:xlink="http://www.w3.org/1999/xlink" version="1.1"><g stroke-width="1" stroke-linejoin="bevel"><path d="M777.3 509L721.7 586L864.3 668Z" fill="#7fc76f" stroke="#7fc76f"></path><path d="M864.3 668L983 600L777.3 509Z" fill="#289f73" stroke="#289f73"></path><path d="M941 675L983 600L864.3 668Z" fill="#95d06d" stroke="#95d06d"></path><path d="M648.7 728L882.3 752L864.3 668Z" fill="#95d06d" stroke="#95d06d"></path><path d="M864.3 668L882.3 752L941 675Z" fill="#f2f26c" stroke="#f2f26c"></path><path d="M721.7 586L648.7 728L864.3 668Z" fill="#f2f26c" stroke="#f2f26c"></path><path d="M705.7 311L666.7 387L777.3 509Z" fill="#009473" stroke="#009473"></path><path d="M777.3 509L666.7 387L721.7 586Z" fill="#7fc76f" stroke="#7fc76f"></path><path d="M721.7 586L426 626L648.7 728Z" fill="#6abd71" stroke="#6abd71"></path><path d="M941 675L1088.7 588L983 600Z" fill="#abd96c" stroke="#abd96c"></path><path d="M983 600L1022 413L777.3 509Z" fill="#289f73" stroke="#289f73"></path><path d="M1222.7 734L1088.7 588L941 675Z" fill="#55b372" stroke="#55b372"></path><path d="M1088.7 588L1022 413L983 600Z" fill="#7fc76f" stroke="#7fc76f"></path><path d="M833.3 280L705.7 311L777.3 509Z" fill="#c2e26b" stroke="#c2e26b"></path><path d="M648.7 728L864.3 900L882.3 752Z" fill="#7fc76f" stroke="#7fc76f"></path><path d="M882.3 752L1041 900L941 675Z" fill="#009473" stroke="#009473"></path><path d="M1022 413L833.3 280L777.3 509Z" fill="#abd96c" stroke="#abd96c"></path><path d="M705.7 311L578 375L666.7 387Z" fill="#f2f26c" stroke="#f2f26c"></path><path d="M666.7 387L506 425L721.7 586Z" fill="#009473" stroke="#009473"></path><path d="M578 375L506 425L666.7 387Z" fill="#95d06d" stroke="#95d06d"></path><path d="M577 900L644.7 900L648.7 728Z" fill="#55b372" stroke="#55b372"></path><path d="M648.7 728L644.7 900L864.3 900Z" fill="#7fc76f" stroke="#7fc76f"></path><path d="M1140.7 303L993 293L1022 413Z" fill="#289f73" stroke="#289f73"></path><path d="M1022 413L993 293L833.3 280Z" fill="#c2e26b" stroke="#c2e26b"></path><path d="M1088.7 588L1158.7 453L1022 413Z" fill="#95d06d" stroke="#95d06d"></path><path d="M864.3 900L1041 900L882.3 752Z" fill="#009473" stroke="#009473"></path><path d="M1088.7 588L1353.3 608L1158.7 453Z" fill="#f2f26c" stroke="#f2f26c"></path><path d="M494 824L577 900L648.7 728Z" fill="#3fa973" stroke="#3fa973"></path><path d="M506 425L426 626L721.7 586Z" fill="#f2f26c" stroke="#f2f26c"></path><path d="M426 626L494 824L648.7 728Z" fill="#95d06d" stroke="#95d06d"></path><path d="M506 425L396.3 566L426 626Z" fill="#d9ea6b" stroke="#d9ea6b"></path><path d="M426 626L301.3 757L494 824Z" fill="#95d06d" stroke="#95d06d"></path><path d="M930 171L858.3 178L833.3 280Z" fill="#289f73" stroke="#289f73"></path><path d="M833.3 280L858.3 178L705.7 311Z" fill="#3fa973" stroke="#3fa973"></path><path d="M705.7 311L646.7 124L578 375Z" fill="#55b372" stroke="#55b372"></path><path d="M354.3 299L322.3 406L506 425Z" fill="#d9ea6b" stroke="#d9ea6b"></path><path d="M1041 900L1222.7 734L941 675Z" fill="#d9ea6b" stroke="#d9ea6b"></path><path d="M1158.7 453L1140.7 303L1022 413Z" fill="#009473" stroke="#009473"></path><path d="M993 293L930 171L833.3 280Z" fill="#55b372" stroke="#55b372"></path><path d="M1207.7 219L1140.7 303L1292.3 302Z" fill="#c2e26b" stroke="#c2e26b"></path><path d="M1207.7 219L930 171L993 293Z" fill="#289f73" stroke="#289f73"></path><path d="M767.3 0L646.7 124L858.3 178Z" fill="#f2f26c" stroke="#f2f26c"></path><path d="M858.3 178L646.7 124L705.7 311Z" fill="#3fa973" stroke="#3fa973"></path><path d="M506 425L322.3 406L396.3 566Z" fill="#d9ea6b" stroke="#d9ea6b"></path><path d="M1238.7 900L1284.3 797L1222.7 734Z" fill="#c2e26b" stroke="#c2e26b"></path><path d="M1222.7 734L1353.3 608L1088.7 588Z" fill="#6abd71" stroke="#6abd71"></path><path d="M443 211L506 425L578 375Z" fill="#abd96c" stroke="#abd96c"></path><path d="M396.3 566L301.3 757L426 626Z" fill="#95d06d" stroke="#95d06d"></path><path d="M1041 900L1238.7 900L1222.7 734Z" fill="#6abd71" stroke="#6abd71"></path><path d="M646.7 124L443 211L578 375Z" fill="#7fc76f" stroke="#7fc76f"></path><path d="M142.7 557L301.3 757L396.3 566Z" fill="#f2f26c" stroke="#f2f26c"></path><path d="M494 824L288.3 900L577 900Z" fill="#55b372" stroke="#55b372"></path><path d="M1284.3 797L1353.3 608L1222.7 734Z" fill="#7fc76f" stroke="#7fc76f"></path><path d="M1292.3 302L1140.7 303L1158.7 453Z" fill="#d9ea6b" stroke="#d9ea6b"></path><path d="M1140.7 303L1207.7 219L993 293Z" fill="#009473" stroke="#009473"></path><path d="M443 211L354.3 299L506 425Z" fill="#c2e26b" stroke="#c2e26b"></path><path d="M1403.3 388L1292.3 302L1158.7 453Z" fill="#6abd71" stroke="#6abd71"></path><path d="M1238.7 900L1282.3 900L1284.3 797Z" fill="#6abd71" stroke="#6abd71"></path><path d="M1500 754L1500 650L1353.3 608Z" fill="#55b372" stroke="#55b372"></path><path d="M964 0L858.3 178L930 171Z" fill="#55b372" stroke="#55b372"></path><path d="M964 0L767.3 0L858.3 178Z" fill="#7fc76f" stroke="#7fc76f"></path><path d="M646.7 124L491 0L443 211Z" fill="#f2f26c" stroke="#f2f26c"></path><path d="M767.3 0L701.7 0L646.7 124Z" fill="#d9ea6b" stroke="#d9ea6b"></path><path d="M182.7 827L288.3 900L301.3 757Z" fill="#f2f26c" stroke="#f2f26c"></path><path d="M301.3 757L288.3 900L494 824Z" fill="#289f73" stroke="#289f73"></path><path d="M1176.7 0L964 0L930 171Z" fill="#009473" stroke="#009473"></path><path d="M1292.3 302L1336.3 207L1207.7 219Z" fill="#7fc76f" stroke="#7fc76f"></path><path d="M1207.7 219L1176.7 0L930 171Z" fill="#abd96c" stroke="#abd96c"></path><path d="M1353.3 608L1403.3 388L1158.7 453Z" fill="#abd96c" stroke="#abd96c"></path><path d="M354.3 299L208.7 373L322.3 406Z" fill="#289f73" stroke="#289f73"></path><path d="M322.3 406L168.7 498L396.3 566Z" fill="#95d06d" stroke="#95d06d"></path><path d="M122.7 137L208.7 373L354.3 299Z" fill="#abd96c" stroke="#abd96c"></path><path d="M317.3 93L354.3 299L443 211Z" fill="#55b372" stroke="#55b372"></path><path d="M1403.3 388L1336.3 207L1292.3 302Z" fill="#abd96c" stroke="#abd96c"></path><path d="M208.7 373L168.7 498L322.3 406Z" fill="#6abd71" stroke="#6abd71"></path><path d="M0 599L142.7 557L0 471Z" fill="#d9ea6b" stroke="#d9ea6b"></path><path d="M168.7 498L142.7 557L396.3 566Z" fill="#abd96c" stroke="#abd96c"></path><path d="M142.7 557L182.7 827L301.3 757Z" fill="#d9ea6b" stroke="#d9ea6b"></path><path d="M701.7 0L491 0L646.7 124Z" fill="#95d06d" stroke="#95d06d"></path><path d="M1500 754L1353.3 608L1284.3 797Z" fill="#f2f26c" stroke="#f2f26c"></path><path d="M1353.3 608L1500 470L1403.3 388Z" fill="#95d06d" stroke="#95d06d"></path><path d="M1336.3 207L1176.7 0L1207.7 219Z" fill="#abd96c" stroke="#abd96c"></path><path d="M1500 650L1500 470L1353.3 608Z" fill="#55b372" stroke="#55b372"></path><path d="M1403.3 388L1500 312L1336.3 207Z" fill="#d9ea6b" stroke="#d9ea6b"></path><path d="M491 0L317.3 93L443 211Z" fill="#7fc76f" stroke="#7fc76f"></path><path d="M1500 900L1500 754L1284.3 797Z" fill="#009473" stroke="#009473"></path><path d="M0 900L146.7 900L182.7 827Z" fill="#f2f26c" stroke="#f2f26c"></path><path d="M182.7 827L146.7 900L288.3 900Z" fill="#6abd71" stroke="#6abd71"></path><path d="M1500 470L1500 312L1403.3 388Z" fill="#55b372" stroke="#55b372"></path><path d="M1336.3 207L1387.3 0L1176.7 0Z" fill="#289f73" stroke="#289f73"></path><path d="M1282.3 900L1500 900L1284.3 797Z" fill="#f2f26c" stroke="#f2f26c"></path><path d="M1500 312L1500 222L1336.3 207Z" fill="#6abd71" stroke="#6abd71"></path><path d="M491 0L301.3 0L317.3 93Z" fill="#abd96c" stroke="#abd96c"></path><path d="M0 376L168.7 498L208.7 373Z" fill="#009473" stroke="#009473"></path><path d="M0 471L142.7 557L168.7 498Z" fill="#d9ea6b" stroke="#d9ea6b"></path><path d="M142.7 557L0 728L182.7 827Z" fill="#abd96c" stroke="#abd96c"></path><path d="M0 471L168.7 498L0 376Z" fill="#3fa973" stroke="#3fa973"></path><path d="M122.7 137L354.3 299L317.3 93Z" fill="#55b372" stroke="#55b372"></path><path d="M0 599L0 728L142.7 557Z" fill="#c2e26b" stroke="#c2e26b"></path><path d="M1500 222L1387.3 0L1336.3 207Z" fill="#95d06d" stroke="#95d06d"></path><path d="M224.7 0L122.7 137L317.3 93Z" fill="#abd96c" stroke="#abd96c"></path><path d="M301.3 0L224.7 0L317.3 93Z" fill="#c2e26b" stroke="#c2e26b"></path><path d="M122.7 137L0 376L208.7 373Z" fill="#3fa973" stroke="#3fa973"></path><path d="M0 728L0 900L182.7 827Z" fill="#d9ea6b" stroke="#d9ea6b"></path><path d="M1500 222L1500 0L1387.3 0Z" fill="#95d06d" stroke="#95d06d"></path><path d="M0 0L0 129L122.7 137Z" fill="#f2f26c" stroke="#f2f26c"></path><path d="M122.7 137L0 129L0 376Z" fill="#6abd71" stroke="#6abd71"></path><path d="M224.7 0L0 0L122.7 137Z" fill="#3fa973" stroke="#3fa973"></path></g></svg>